<?xml version="1.0" encoding="UTF-8"?>
<svg id="Layer_1" data-name="Layer 1" xmlns="http://www.w3.org/2000/svg" viewBox="0 0 423.79 423.79">
  <defs>
    <style>
      .cls-1 {
        fill: #231f20;
      }
    </style>
  </defs>
  <path class="cls-1" d="M260.52,0c-24.08,0-44.13,7.21-48.54,30.01C207.57,7.21,187.52,0,163.44,0c-27.31,0-49.46,22.14-49.46,49.46h196c0-27.31-22.14-49.46-49.46-49.46Z"/>
  <path class="cls-1" d="M0,160.32c0,24.08,7.21,44.13,30.01,48.54C7.21,213.28,0,233.33,0,257.41c0,27.31,22.14,49.46,49.46,49.46V110.87c-27.31,0-49.46,22.14-49.46,49.46Z"/>
  <path class="cls-1" d="M212.89,374.33h-98.91c0,27.31,22.14,49.46,49.46,49.46,24.08,0,44.13-7.21,48.54-30,4.41,22.79,24.46,30,48.54,30,27.31,0,49.46-22.14,49.46-49.46h-97.09Z"/>
  <path class="cls-1" d="M393.78,208.87c22.79-4.41,30-24.46,30-48.54,0-27.31-22.14-49.46-49.46-49.46v196c27.31,0,49.46-22.14,49.46-49.46,0-24.08-7.21-44.13-30-48.54Z"/>
  <path class="cls-1" d="M360.26,301.7l-1.6-11.73c-7.34-53.82-7.34-108.38,0-162.2l1.6-11.73-9.36,7.25c-38.44,29.78-80.35,54.75-124.78,74.4,19.2-42.06,43.18-81.79,71.52-118.38l7.25-9.36-11.73,1.6c-53.82,7.34-108.38,7.34-162.2,0l-11.73-1.6,7.25,9.36c28.34,36.59,52.33,76.32,71.52,118.38-44.43-19.66-86.34-44.63-124.78-74.4l-9.36-7.25,1.6,11.73c7.34,53.82,7.34,108.38,0,162.2l-1.6,11.73,9.36-7.25c39.42-30.53,82.47-56.01,128.16-75.89-19.73,44.85-44.87,87.15-74.9,125.92l-7.25,9.36,11.73-1.6c53.82-7.34,108.38-7.34,162.2,0l11.73,1.6-7.25-9.36c-30.03-38.77-55.17-81.07-74.9-125.92,45.69,19.88,88.74,45.35,128.16,75.89l9.36,7.25Z"/>
</svg>