<?xml version="1.0" encoding="UTF-8"?>
<svg id="Layer_1" data-name="Layer 1" xmlns="http://www.w3.org/2000/svg" viewBox="0 0 431.73 61.56">
  <defs>
    <style>
      .cls-1 {
        fill: #231f20;
      }
    </style>
  </defs>
  <path class="cls-1" d="M0,30.96C0,11.43,12.33,0,27.18,0c11.88,0,22.95,5.76,25.29,23.85l-3.42.18C46.98,6.84,37.35,2.7,27.36,2.7,14.22,2.7,3.51,12.87,3.51,30.51v.45c0,17.82,10.71,27.81,23.85,27.81,9.36,0,19.62-4.05,21.69-21.24l3.42.18c-2.34,18.09-13.59,23.85-25.29,23.85C12.33,61.56,0,50.04,0,30.96Z"/>
  <path class="cls-1" d="M61.47,0h3.06v60.66h-3.06V0Z"/>
  <path class="cls-1" d="M72.99,39.42c0-13.23,8.28-22.14,20.79-22.14s20.52,8.91,20.52,22.14-8.19,22.14-20.7,22.14-20.61-8.91-20.61-22.14ZM111.15,39.6v-.36c0-11.7-6.66-19.35-17.37-19.35s-17.64,7.65-17.64,19.35v.36c0,11.7,6.66,19.35,17.46,19.35s17.55-7.65,17.55-19.35Z"/>
  <path class="cls-1" d="M117.27,18.18h3.15l14.94,38.34,14.94-38.34h3.06l-17.01,43.02h-2.16l-16.92-43.02Z"/>
  <path class="cls-1" d="M156.24,39.51c0-13.14,8.37-22.23,20.43-22.23s18.9,8.19,18.9,21.78v1.08h-36.18c.18,10.8,6.48,18.81,17.37,18.81,9.81,0,14.67-5.04,16.83-10.8l2.52.9c-2.25,6.57-8.1,12.51-19.35,12.51-12.87,0-20.52-9.27-20.52-22.05ZM176.67,19.89c-9.9,0-16.65,7.11-17.28,17.73h32.85c-.09-11.07-6.12-17.73-15.57-17.73Z"/>
  <path class="cls-1" d="M204.21,18.18h2.88v9.54c1.71-6.3,5.67-9.54,13.32-9.54h2.88v2.79h-3.24c-10.08,0-12.69,6.57-12.69,18.81v20.88h-3.15V18.18Z"/>
  <path class="cls-1" d="M249.3.9h17.28c15.84,0,23.22,5.13,23.22,17.1,0,12.69-7.2,17.55-23.67,17.55h-13.5v25.11h-3.33V.9ZM286.38,18c0-10.44-5.67-14.31-19.8-14.31h-13.95v29.07h13.5c14.22,0,20.25-3.96,20.25-14.76Z"/>
  <path class="cls-1" d="M296.46,18.18h2.88v9.54c1.71-6.3,5.67-9.54,13.32-9.54h2.88v2.79h-3.24c-10.08,0-12.69,6.57-12.69,18.81v20.88h-3.15V18.18Z"/>
  <path class="cls-1" d="M319.95,5.4h4.14v4.41h-4.14v-4.41ZM320.49,18.18h3.15v42.48h-3.15V18.18Z"/>
  <path class="cls-1" d="M335.16,18.18h2.97v12.51c2.16-8.55,7.47-13.41,15.93-13.41s14.67,5.76,14.67,15.93v27.45h-3.15v-27.18c0-8.91-4.59-13.5-11.61-13.5-10.8,0-15.66,9-15.66,24.75v15.93h-3.15V18.18Z"/>
  <path class="cls-1" d="M381.24,51.3v-30.51h-8.73v-2.61h8.82v-9.63l2.97-2.7v12.33h11.25v2.61h-11.34v30.15c0,5.13,1.53,7.11,6.48,7.11h4.86v2.61h-4.95c-6.93,0-9.36-2.88-9.36-9.36Z"/>
  <path class="cls-1" d="M399.06,53.82l2.07-1.8c4.41,5.4,10.8,7.11,16.02,7.11,7.2,0,11.7-3.6,11.7-9.36s-5.76-7.74-13.5-9.63c-8.91-2.16-14.22-4.05-14.22-11.61,0-6.57,5.76-11.25,13.59-11.25,6.3,0,11.61,2.43,16.02,6.84l-1.8,2.16c-3.78-4.14-9-6.57-14.22-6.57-6.57,0-10.71,3.51-10.71,8.73,0,5.85,4.86,7.11,12.69,9,7.38,1.8,15.03,4.32,15.03,11.97s-5.67,12.15-14.58,12.15c-6.75,0-14.04-2.25-18.09-7.74Z"/>
</svg>