<?xml version="1.0" encoding="UTF-8"?>
<svg id="Layer_1" data-name="Layer 1" xmlns="http://www.w3.org/2000/svg" viewBox="0 0 229.41 174.51">
  <defs>
    <style>
      .cls-1 {
        fill: #fff;
      }
    </style>
  </defs>
  <path class="cls-1" d="M0,3.98h16.35l1.99,33.68h.65c3.8-11.35,9.73-20.48,17.84-27.33C44.94,3.43,55.45,0,68.33,0s23.58,3.66,32.01,11.03c8.43,7.37,14.36,17.7,17.7,31.04h.65c3.75-12.88,10.33-23.12,19.69-30.67S159.04.05,172.38.05c17.56,0,31.46,5.47,41.69,16.35,10.24,10.89,15.33,27.8,15.33,50.68v107.38h-18.99v-103.72c0-18.02-3.61-31.27-10.84-39.84-7.23-8.57-17.42-12.83-30.53-12.83-8.43,0-16.08,2.13-22.84,6.35-6.76,4.22-12.18,10.52-16.17,18.85-3.98,8.34-6.02,18.72-6.02,31.18v100.06h-18.67v-101.08c0-17.79-3.66-31.46-11.03-41.04-7.32-9.54-17.56-14.36-30.67-14.36-8.66,0-16.4,2.18-23.16,6.49-6.76,4.35-12.04,10.79-15.84,19.36s-5.65,18.95-5.65,31.18v99.42H0V3.98Z"/>
</svg>