<?xml version="1.0" encoding="UTF-8"?>
<svg id="Layer_1" data-name="Layer 1" xmlns="http://www.w3.org/2000/svg" viewBox="0 0 482.58 51.19">
  <defs>
    <style>
      .cls-1 {
        fill: #fff;
      }
    </style>
  </defs>
  <path class="cls-1" d="M0,13.54h3.53l.43,7.27h.14c.82-2.45,2.1-4.42,3.85-5.9,1.75-1.49,4.02-2.23,6.8-2.23s5.09.79,6.91,2.38,3.1,3.82,3.82,6.7h.14c.81-2.78,2.23-4.99,4.25-6.62,2.02-1.63,4.46-2.45,7.34-2.45,3.79,0,6.79,1.18,9,3.53,2.21,2.35,3.31,6,3.31,10.94v23.18h-4.1v-22.39c0-3.89-.78-6.75-2.34-8.6-1.56-1.85-3.76-2.77-6.59-2.77-1.82,0-3.47.46-4.93,1.37-1.46.91-2.63,2.27-3.49,4.07-.86,1.8-1.3,4.04-1.3,6.73v21.6h-4.03v-21.82c0-3.84-.79-6.79-2.38-8.86-1.58-2.06-3.79-3.1-6.62-3.1-1.87,0-3.54.47-5,1.4-1.46.94-2.6,2.33-3.42,4.18-.82,1.85-1.22,4.09-1.22,6.73v21.46H0V13.54Z"/>
  <path class="cls-1" d="M66.62,51.19c-3.7,0-6.68-.98-8.96-2.95-2.28-1.97-3.42-4.68-3.42-8.14,0-2.4.61-4.49,1.84-6.26,1.22-1.78,2.88-3.13,4.97-4.07,2.09-.94,4.45-1.4,7.09-1.4,2.02,0,3.96.26,5.83.79,1.87.53,3.55,1.2,5.04,2.02v-4.82c0-3.31-.88-5.82-2.63-7.52-1.75-1.7-4.02-2.56-6.8-2.56-2.02,0-3.92.37-5.72,1.12-1.8.74-3.42,1.93-4.86,3.56l-2.66-2.23c1.87-2.16,3.95-3.71,6.23-4.64s4.74-1.4,7.38-1.4c3.89,0,7.03,1.13,9.43,3.38s3.6,5.64,3.6,10.15v24.12h-3.46l-.36-4.97h-.14c-1.49,1.83-3.31,3.25-5.47,4.28-2.16,1.03-4.46,1.55-6.91,1.55ZM67.2,47.59c2.35,0,4.5-.46,6.44-1.37s3.73-2.3,5.36-4.18v-7.99c-1.49-.72-3.13-1.31-4.93-1.76-1.8-.46-3.64-.68-5.51-.68-2.02,0-3.8.31-5.36.94-1.56.62-2.78,1.57-3.67,2.84-.89,1.27-1.33,2.8-1.33,4.57,0,2.4.8,4.27,2.41,5.62,1.61,1.34,3.8,2.02,6.59,2.02Z"/>
  <path class="cls-1" d="M88.19,13.54h3.53l.43,8.57h.14c.77-3.12,1.93-5.47,3.49-7.05,1.56-1.58,3.37-2.38,5.44-2.38,1.2,0,2.32.19,3.35.58,1.03.38,1.98.91,2.84,1.58l-1.08,3.6c-.86-.58-1.72-1.02-2.56-1.33-.84-.31-1.79-.47-2.84-.47-2.06,0-3.74.79-5.04,2.38-1.29,1.58-2.22,3.46-2.77,5.62-.55,2.16-.83,4.13-.83,5.9v19.8h-4.1V13.54Z"/>
  <path class="cls-1" d="M111.83,0h4.39v4.61h-4.39V0ZM111.97,13.54h4.1v36.79h-4.1V13.54Z"/>
  <path class="cls-1" d="M133.46,51.19c-3.7,0-6.69-.98-8.96-2.95-2.28-1.97-3.42-4.68-3.42-8.14,0-2.4.61-4.49,1.84-6.26,1.22-1.78,2.88-3.13,4.97-4.07,2.09-.94,4.45-1.4,7.09-1.4,2.02,0,3.96.26,5.83.79,1.87.53,3.55,1.2,5.04,2.02v-4.82c0-3.31-.88-5.82-2.63-7.52-1.75-1.7-4.02-2.56-6.8-2.56-2.02,0-3.92.37-5.72,1.12s-3.42,1.93-4.86,3.56l-2.66-2.23c1.87-2.16,3.95-3.71,6.23-4.64,2.28-.94,4.74-1.4,7.38-1.4,3.89,0,7.03,1.13,9.43,3.38,2.4,2.26,3.6,5.64,3.6,10.15v24.12h-3.46l-.36-4.97h-.14c-1.49,1.83-3.31,3.25-5.47,4.28-2.16,1.03-4.46,1.55-6.91,1.55ZM134.04,47.59c2.35,0,4.5-.46,6.44-1.37,1.94-.91,3.73-2.3,5.36-4.18v-7.99c-1.49-.72-3.13-1.31-4.93-1.76-1.8-.46-3.64-.68-5.51-.68-2.02,0-3.8.31-5.36.94-1.56.62-2.79,1.57-3.67,2.84-.89,1.27-1.33,2.8-1.33,4.57,0,2.4.8,4.27,2.41,5.62s3.8,2.02,6.59,2.02Z"/>
  <path class="cls-1" d="M156.03,13.54h3.53l.43,7.56h.14c.86-2.54,2.33-4.58,4.39-6.12s4.58-2.3,7.56-2.3c3.94,0,7.06,1.27,9.36,3.82,2.3,2.54,3.46,6.5,3.46,11.88v21.96h-4.03v-21.96c0-4.03-.9-7.01-2.7-8.93-1.8-1.92-4.19-2.88-7.16-2.88-2.16,0-4.06.46-5.69,1.37-1.63.91-2.91,2.28-3.82,4.1-.91,1.83-1.37,4.03-1.37,6.62v21.67h-4.1V13.54Z"/>
  <path class="cls-1" d="M201.06,51.19c-3.7,0-6.68-.98-8.96-2.95-2.28-1.97-3.42-4.68-3.42-8.14,0-2.4.61-4.49,1.84-6.26,1.22-1.78,2.88-3.13,4.97-4.07,2.09-.94,4.45-1.4,7.09-1.4,2.02,0,3.96.26,5.83.79,1.87.53,3.55,1.2,5.04,2.02v-4.82c0-3.31-.88-5.82-2.63-7.52-1.75-1.7-4.02-2.56-6.8-2.56-2.02,0-3.92.37-5.72,1.12-1.8.74-3.42,1.93-4.86,3.56l-2.66-2.23c1.87-2.16,3.95-3.71,6.23-4.64,2.28-.94,4.74-1.4,7.38-1.4,3.89,0,7.03,1.13,9.43,3.38s3.6,5.64,3.6,10.15v24.12h-3.46l-.36-4.97h-.14c-1.49,1.83-3.31,3.25-5.47,4.28-2.16,1.03-4.46,1.55-6.91,1.55ZM201.64,47.59c2.35,0,4.5-.46,6.45-1.37,1.94-.91,3.73-2.3,5.36-4.18v-7.99c-1.49-.72-3.13-1.31-4.93-1.76-1.8-.46-3.64-.68-5.51-.68-2.02,0-3.8.31-5.36.94-1.56.62-2.78,1.57-3.67,2.84s-1.33,2.8-1.33,4.57c0,2.4.8,4.27,2.41,5.62s3.8,2.02,6.59,2.02Z"/>
  <path class="cls-1" d="M248.76,13.54h3.53l.43,7.27h.14c.82-2.45,2.1-4.42,3.85-5.9,1.75-1.49,4.02-2.23,6.8-2.23s5.09.79,6.91,2.38,3.1,3.82,3.82,6.7h.14c.82-2.78,2.23-4.99,4.25-6.62s4.46-2.45,7.34-2.45c3.79,0,6.79,1.18,9,3.53,2.21,2.35,3.31,6,3.31,10.94v23.18h-4.1v-22.39c0-3.89-.78-6.75-2.34-8.6-1.56-1.85-3.76-2.77-6.59-2.77-1.82,0-3.47.46-4.93,1.37-1.46.91-2.63,2.27-3.49,4.07-.86,1.8-1.29,4.04-1.29,6.73v21.6h-4.03v-21.82c0-3.84-.79-6.79-2.38-8.86-1.58-2.06-3.79-3.1-6.62-3.1-1.87,0-3.54.47-5,1.4-1.46.94-2.6,2.33-3.42,4.18s-1.22,4.09-1.22,6.73v21.46h-4.1V13.54Z"/>
  <path class="cls-1" d="M315.39,51.19c-3.7,0-6.68-.98-8.96-2.95-2.28-1.97-3.42-4.68-3.42-8.14,0-2.4.61-4.49,1.84-6.26,1.22-1.78,2.88-3.13,4.97-4.07,2.09-.94,4.45-1.4,7.09-1.4,2.02,0,3.96.26,5.83.79,1.87.53,3.55,1.2,5.04,2.02v-4.82c0-3.31-.88-5.82-2.63-7.52-1.75-1.7-4.02-2.56-6.8-2.56-2.02,0-3.92.37-5.72,1.12-1.8.74-3.42,1.93-4.86,3.56l-2.66-2.23c1.87-2.16,3.95-3.71,6.23-4.64s4.74-1.4,7.38-1.4c3.89,0,7.03,1.13,9.43,3.38s3.6,5.64,3.6,10.15v24.12h-3.46l-.36-4.97h-.14c-1.49,1.83-3.31,3.25-5.47,4.28-2.16,1.03-4.46,1.55-6.91,1.55ZM315.96,47.59c2.35,0,4.5-.46,6.44-1.37s3.73-2.3,5.36-4.18v-7.99c-1.49-.72-3.13-1.31-4.93-1.76-1.8-.46-3.64-.68-5.51-.68-2.02,0-3.8.31-5.36.94-1.56.62-2.78,1.57-3.67,2.84-.89,1.27-1.33,2.8-1.33,4.57,0,2.4.8,4.27,2.41,5.62,1.61,1.34,3.8,2.02,6.59,2.02ZM322.66.33h6.19l-8.88,7.45h-4.18l6.86-7.45Z"/>
  <path class="cls-1" d="M337.96,13.54h3.53l.43,8.57h.14c.77-3.12,1.93-5.47,3.49-7.05,1.56-1.58,3.37-2.38,5.44-2.38,1.2,0,2.32.19,3.35.58,1.03.38,1.98.91,2.84,1.58l-1.08,3.6c-.86-.58-1.72-1.02-2.56-1.33-.84-.31-1.79-.47-2.84-.47-2.06,0-3.74.79-5.04,2.38-1.29,1.58-2.22,3.46-2.77,5.62-.55,2.16-.83,4.13-.83,5.9v19.8h-4.1V13.54Z"/>
  <path class="cls-1" d="M374.11,51.12c-2.69,0-4.73-.7-6.12-2.09s-2.09-3.48-2.09-6.26v-25.85h-6.12v-3.38h5.76l1.8-9.07h2.66v9.07h10.3v3.38h-10.3v26.06c0,1.63.41,2.83,1.22,3.6.82.77,1.97,1.15,3.46,1.15.96,0,1.84-.12,2.63-.36.79-.24,1.55-.55,2.27-.94l1.08,3.1c-.86.43-1.91.8-3.13,1.12-1.22.31-2.37.47-3.42.47Z"/>
  <path class="cls-1" d="M385.87,0h4.39v4.61h-4.39V0ZM386.01,13.54h4.1v36.79h-4.1V13.54Z"/>
  <path class="cls-1" d="M399.63,13.54h3.53l.43,8.57h.14c.77-3.12,1.93-5.47,3.49-7.05,1.56-1.58,3.37-2.38,5.44-2.38,1.2,0,2.31.19,3.35.58,1.03.38,1.98.91,2.84,1.58l-1.08,3.6c-.86-.58-1.72-1.02-2.56-1.33-.84-.31-1.79-.47-2.84-.47-2.06,0-3.74.79-5.04,2.38s-2.22,3.46-2.77,5.62c-.55,2.16-.83,4.13-.83,5.9v19.8h-4.1V13.54Z"/>
  <path class="cls-1" d="M437.36,51.19c-3.46,0-6.43-.8-8.93-2.41-2.5-1.61-4.42-3.9-5.76-6.88-1.34-2.98-2.02-6.43-2.02-10.37s.71-7.1,2.12-9.94c1.42-2.83,3.4-5.03,5.94-6.59,2.54-1.56,5.45-2.34,8.71-2.34,2.93,0,5.58.68,7.96,2.05,2.38,1.37,4.26,3.35,5.65,5.94,1.39,2.59,2.09,5.69,2.09,9.29,0,.48-.01,1.04-.04,1.69-.03.65-.08,1.19-.18,1.62h-28.15c0,.86.12,1.9.36,3.1.38,2.21,1.13,4.17,2.23,5.87,1.1,1.7,2.51,3.01,4.21,3.92,1.7.91,3.61,1.37,5.72,1.37,2.54,0,4.74-.4,6.59-1.19,1.85-.79,3.49-1.91,4.93-3.35l2.45,2.52c-1.63,1.73-3.58,3.11-5.83,4.14-2.26,1.03-4.94,1.55-8.06,1.55ZM449.03,29.95c.05-.24.07-.42.07-.54v-.25c0-2.54-.52-4.8-1.55-6.77-1.03-1.97-2.44-3.49-4.21-4.57s-3.74-1.62-5.9-1.62c-2.4,0-4.54.54-6.41,1.62-1.87,1.08-3.36,2.65-4.46,4.72-1.11,2.06-1.71,4.54-1.8,7.42h24.26Z"/>
  <path class="cls-1" d="M470.27,51.19c-2.45,0-4.72-.46-6.8-1.37-2.09-.91-3.83-2.11-5.22-3.6l2.66-2.74c1.34,1.34,2.81,2.35,4.39,3.02,1.58.67,3.21,1.01,4.9,1.01,2.59,0,4.62-.58,6.08-1.73,1.46-1.15,2.2-2.74,2.2-4.75,0-1.34-.36-2.5-1.08-3.46-.72-.96-1.69-1.78-2.92-2.45-1.22-.67-2.92-1.42-5.08-2.23-2.5-1.01-4.49-1.97-5.98-2.88-1.49-.91-2.65-1.98-3.49-3.2-.84-1.22-1.26-2.72-1.26-4.5,0-1.92.49-3.61,1.48-5.08.98-1.46,2.34-2.59,4.07-3.38,1.73-.79,3.7-1.19,5.9-1.19s4.3.37,6.12,1.12c1.82.75,3.43,1.84,4.82,3.28l-2.66,2.66c-2.35-2.26-5.11-3.38-8.28-3.38-2.16,0-3.92.52-5.29,1.55s-2.05,2.46-2.05,4.28c0,1.2.31,2.21.94,3.02.62.82,1.51,1.52,2.66,2.12,1.15.6,2.74,1.29,4.75,2.05,2.69,1.01,4.82,1.99,6.41,2.95,1.58.96,2.82,2.14,3.71,3.53.89,1.39,1.33,3.05,1.33,4.97,0,2.11-.5,3.95-1.51,5.51-1.01,1.56-2.44,2.76-4.28,3.6-1.85.84-4.02,1.26-6.52,1.26Z"/>
</svg>