<svg id="Capa_1" data-name="Capa 1" xmlns="http://www.w3.org/2000/svg" viewBox="0 0 24 24"><defs style="background-color: transparent;"><style>.cls-1{fill:#fff;}</style></defs><title>Facebook Icon</title><path class="cls-1" d="M22.68,0H1.32A1.32,1.32,0,0,0,0,1.32V22.68A1.32,1.32,0,0,0,1.32,24H12.82V14.71H9.69V11.09h3.13V8.41c0-3.1,1.89-4.78,4.66-4.78a25.87,25.87,0,0,1,2.8.14V7H18.35c-1.5,0-1.79.72-1.79,1.77v2.31h3.58l-.47,3.63H16.56V24h6.11A1.32,1.32,0,0,0,24,22.68V1.32A1.32,1.32,0,0,0,22.68,0"/></svg>