<svg id="Capa_1" data-name="Capa 1" xmlns="http://www.w3.org/2000/svg" viewBox="0 0 23.94 24"><defs style="background-color: transparent;"><style>.cls-1{fill:#fff;}</style></defs><title>Pinterest Icon</title><path class="cls-1" d="M12,0A12,12,0,0,0,7.65,23.15a11.52,11.52,0,0,1,0-3.44l1.41-6A4.34,4.34,0,0,1,8.73,12c0-1.66,1-2.91,2.17-2.91a1.51,1.51,0,0,1,1.52,1.69,24,24,0,0,1-1,4,1.74,1.74,0,0,0,1.77,2.17c2.13,0,3.77-2.24,3.77-5.49a4.73,4.73,0,0,0-5-4.87,5.19,5.19,0,0,0-5.41,5.2,4.67,4.67,0,0,0,.89,2.74.37.37,0,0,1,.09.35L7.2,16.2c-.05.23-.17.27-.4.17-1.49-.69-2.43-2.88-2.43-4.65,0-3.78,2.75-7.25,7.92-7.25,4.16,0,7.39,3,7.39,6.92,0,4.14-2.61,7.46-6.23,7.46a3.24,3.24,0,0,1-2.76-1.38l-.75,2.85a13.06,13.06,0,0,1-1.5,3.15A12,12,0,1,0,12,0Z" transform="translate(-0.03)"/></svg>