<svg id="Capa_1" data-name="Capa 1" xmlns="http://www.w3.org/2000/svg" viewBox="0 0 24 19.51"><defs style="background-color: transparent;"><style>.cls-1{fill:#fff;}</style></defs><title>Twitter Icon</title><path class="cls-1" d="M24,4.57a10,10,0,0,1-2.83.78,5,5,0,0,0,2.16-2.72A10.16,10.16,0,0,1,20.16,3.8a4.92,4.92,0,0,0-8.51,3.36,5,5,0,0,0,.13,1.12A13.93,13.93,0,0,1,1.64,3.16,4.82,4.82,0,0,0,1,5.64a4.92,4.92,0,0,0,2.19,4.1A4.9,4.9,0,0,1,.93,9.12v.06A4.92,4.92,0,0,0,4.88,14a5,5,0,0,1-2.21.08,4.94,4.94,0,0,0,4.6,3.42,9.87,9.87,0,0,1-6.1,2.1A10.44,10.44,0,0,1,0,19.54a14,14,0,0,0,7.56,2.21,13.9,13.9,0,0,0,14-14c0-.21,0-.42,0-.63A9.94,9.94,0,0,0,24,4.59Z" transform="translate(0 -2.25)"/></svg>